<?xml version="1.0" encoding="utf-8"?>
<!-- Generator: Adobe Illustrator 24.2.0, SVG Export Plug-In . SVG Version: 6.00 Build 0)  -->
<svg version="1.1" id="Ebene_1" xmlns="http://www.w3.org/2000/svg" xmlns:xlink="http://www.w3.org/1999/xlink" x="0px" y="0px"
	 width="257px" height="85px" viewBox="0 0 257 85" style="enable-background:new 0 0 257 85;" xml:space="preserve">
<style type="text/css">
	.st0{fill:#00A0E1;}
	.st1{fill:url(#SVGID_1_);}
</style>
<g>
	<g>
		<path class="st0" d="M0.8643913,66.2282028H3.59568l3.076195-15.7301216H3.9066911l0.8643827-4.4948082h10.5099163
			c1.7626696,0,3.1804323,0.138134,4.4253168,0.4838905c2.6270523,0.7957382,4.148201,2.7312889,4.148201,5.2896957
			c0,2.4202766-1.416914,4.7024307-3.8371983,5.9464645v0.0694923c2.1779175,0.8296356,2.9736576,2.7312889,2.9736576,4.8405495
			c0,3.6295738-2.351635,6.2227287-5.4973221,7.3981209c-1.4525089,0.5186386-3.1804314,0.6915207-4.8405571,0.6915207H0
			L0.8643913,66.2282028z M13.1369686,65.8824463c0.8643827,0,1.7635202-0.276268,2.3516369-0.7254028
			c0.7601547-0.6228714,1.2787781-1.6253853,1.2787781-2.6965485c0-1.2448845-0.6915131-2.0397835-2.1779156-2.0397835h-3.665163
			l-1.0711651,5.4617348H13.1369686z M14.9699802,55.5801544c1.6940289,0,2.6617966-1.3830185,2.6617966-2.8007774
			c0-0.6220245-0.1728783-1.2440338-0.5881176-1.5550461c-0.379652-0.2771149-0.9330311-0.3805008-1.6245375-0.3805008h-2.6617966
			l-0.899128,4.7363281C11.8581972,55.5801582,14.9699802,55.5801582,14.9699802,55.5801544z"/>
		<path class="st0" d="M36.7423325,59.6597137h0.2415199c0,0,0.1389809-0.656765,0.1389809-1.0372581
			c0-1.0372581-1.0372581-1.4516602-2.2126541-1.4516602c-2.3516388,0-5.255806,1.6245384-5.255806,1.6245384l-1.2092896-4.3219299
			c0,0,3.6990662-1.970295,7.6404953-1.970295c2.9728127,0,6.9489822,1.1406479,6.9489822,5.4973259
			c0,2.0745201-1.2101402,5.6007042-1.2101402,7.1904984c0,0.7957382,0.3805046,1.2448807,1.3482742,1.2448807
			c0.2762642,0,0.656765-0.0347443,0.656765-0.0347443l-0.8296356,4.3219299c0,0-0.4491425,0.1033859-2.2474022,0.1033859
			c-1.8321571,0-4.2176933-0.0686417-4.8397102-2.6270447h-0.0694923c0,0-2.1092682,2.9389114-5.6702003,2.9389114
			c-2.6270523,0-5.0125942-1.4872513-5.0125942-4.7024384C25.160408,61.2503586,32.1788902,59.6597137,36.7423325,59.6597137z
			 M32.3856621,66.8510666c1.6601334,0,3.422802-2.0050354,3.8032951-3.4228058l0.1033897-0.4152489h-0.5525322
			c-1.314373,0-4.7024307,0.3805008-4.7024307,2.4202766C31.0373917,66.4010773,31.4873772,66.8510666,32.3856621,66.8510666z"/>
		<path class="st0" d="M47.7098694,73.1780319c1.2440338,0,2.5236626-0.3457565,3.2151756-1.452507l0.1033859-0.1728821
			l-3.0770416-14.3132057h-2.0050392l0.8296356-4.3210754h9.6116333l-0.8296356,4.3210754h-1.7287636l0.8991318,6.6032372
			c0.1381302,1.0720062-0.0347481,2.3168869-0.0347481,2.3168869h0.138134c0,0,0.4143982-1.2448807,1.0025177-2.3168869
			l3.3880539-6.6032333h-1.6245384l0.8296356-4.3210754h9.404007l-0.8304825,4.3210754h-1.8321609l-8.6777573,15.0394592
			c-2.5931587,4.4600601-5.6354561,5.7040939-8.8853722,5.7040939c-3.3533096,0-5.2549553-1.4516602-5.2549553-1.4516602
			l2.5584106-4.1143036C44.9090881,72.417038,45.8082161,73.1780319,47.7098694,73.1780319z"/>
		<path class="st0" d="M68.2958069,61.941864h5.5312195l-0.3457565,1.6940269
			c-0.3796463,1.6940269,1.7635193,2.1431694,3.5617828,2.1431694c2.6617966,0,3.6643219-1.3830185,3.6643219-2.5931587
			c0-3.1804314-10.4065247-2.2813034-10.4065247-9.7150116c0-5.4964714,4.9786835-7.8820114,10.3370361-7.8820114
			c3.0084,0,8.6091156,0.9330292,7.7447205,5.1507225l-0.6567688,3.2499237h-5.532074l0.3110123-1.5897903
			c0.2771225-1.1753922-1.2092819-1.452507-2.5923004-1.452507c-2.0745239,0-3.4228058,0.656765-3.4228058,2.1440125
			c0,3.4914398,10.4404221,2.1779137,10.4404221,9.7836533c0,5.4625778-5.0125885,8.2633591-10.6827927,8.2633591
			c-3.560936,0-9.3692703-1.5906448-8.4701309-6.4311981L68.2958069,61.941864z"/>
		<path class="st0" d="M91.5265961,63.8087616l1.31353-6.5693283h-2.4202805l0.8296356-4.3210754h2.6278992l0.9330368-4.8058167
			h5.7396927l-0.933876,4.8058167h3.7685547l-0.8296356,4.3210754h-3.7685547l-1.1753922,6.1888351
			c-0.0694885,0.3110085-0.1033859,0.7601547-0.1033859,0.9330368c0,1.452507,1.3135223,1.7635117,2.6270523,1.7635117
			c0.518631,0,0.933876-0.0694885,0.933876-0.0694885l-0.933876,4.7371674c0,0-0.8991318,0.1033859-1.5897903,0.1033859
			c-3.9075317,0-7.1913528-1.5906372-7.1913528-5.7049408C91.3537216,64.7765427,91.4223633,64.2926559,91.5265961,63.8087616z"/>
		<path class="st0" d="M115.0090866,59.6597137h0.2415237c0,0,0.1389771-0.656765,0.1389771-1.0372581
			c0-1.0372581-1.037262-1.4516602-2.2126617-1.4516602c-2.3516312,0-5.255806,1.6245384-5.255806,1.6245384l-1.2092896-4.3219299
			c0,0,3.6990662-1.970295,7.6405106-1.970295c2.9728088,0,6.9489822,1.1406479,6.9489822,5.4973259
			c0,2.0745201-1.210144,5.6007042-1.210144,7.1904984c0,0.7957382,0.3805008,1.2448807,1.3482742,1.2448807
			c0.276268,0,0.6567612-0.0347443,0.6567612-0.0347443l-0.8296356,4.3219299c0,0-0.4491425,0.1033859-2.247406,0.1033859
			c-1.8321609,0-4.2176971-0.0686417-4.8397141-2.6270447h-0.0694885c0,0-2.1092682,2.9389114-5.6702118,2.9389114
			c-2.6270447,0-5.0125885-1.4872513-5.0125885-4.7024384C103.4271545,61.2503586,110.4456406,59.6597137,115.0090866,59.6597137z
			 M110.6524124,66.8510666c1.6601334,0,3.4227982-2.0050354,3.803299-3.4228058l0.1033859-0.4152489h-0.5525284
			c-1.3143768,0-4.7024307,0.3805008-4.7024307,2.4202766C109.3041306,66.4010773,109.7541199,66.8510666,110.6524124,66.8510666z"
			/>
		<path class="st0" d="M127.7291183,58.0004349c0.0694885-0.3805046-0.0347443-0.7609978-0.6220169-0.7609978h-1.6592941
			l0.8643951-4.3210754h5.6346054c1.3830261,0,2.1440277,0.4838905,2.1440277,1.6245346
			c0,0.5186348-0.2423706,1.728775-0.4838867,2.4889183h0.068634c1.1414948-2.4194336,3.6304169-4.425312,6.1540833-4.425312
			c0.5881348,0,1.0372772,0.0694885,1.0372772,0.0694885l-1.1406555,5.8778267c0,0-0.4499969-0.1042404-1.1753998-0.1042404
			c-1.7982635,0-5.2210541,1.2101402-6.0854492,5.9117203l-1.2092896,6.361702h-5.9812088L127.7291183,58.0004349z"/>
		<path class="st0" d="M143.0397644,63.8087616l1.3135223-6.5693283h-2.4202728l0.8296356-4.3210754h2.6278992l0.9330292-4.8058167
			h5.7397003l-0.9338837,4.8058167h3.7685547l-0.8296356,4.3210754h-3.7685547l-1.1753998,6.1888351
			c-0.0694885,0.3110085-0.1033783,0.7601547-0.1033783,0.9330368c0,1.452507,1.3135223,1.7635117,2.6270447,1.7635117
			c0.518631,0,0.9338837-0.0694885,0.9338837-0.0694885l-0.9338837,4.7371674c0,0-0.8991241,0.1033859-1.5897827,0.1033859
			c-3.9066925,0-7.1913605-1.5906372-7.1913605-5.7049408C142.8668823,64.7765427,142.9355316,64.2926559,143.0397644,63.8087616z"
			/>
		<path class="st0" d="M158.0826263,60.4207191l1.9363861-9.9226379h-2.766037l0.8643951-4.4948082h11.720047l-0.8643799,4.4948082
			h-2.7651825l-1.9016571,9.9226379c-0.2423859,1.2787781-0.3457489,1.6592865-0.3457489,2.2465591
			c0,2.0397835,1.3482666,3.1117897,3.6295624,3.1117897c1.5211639,0,2.8355255-0.4838867,3.7338104-1.4177628
			c0.6915131-0.7254066,1.1067505-1.5897942,1.3143768-2.7312889l2.1431732-11.1319275h-2.766037l0.8643799-4.4948082h11.7200623
			l-0.8635406,4.4948082h-2.766037l-2.1779022,11.3048019c-0.622879,3.2499199-2.247406,5.912571-4.5982056,7.5023613
			c-1.8330078,1.2101364-4.1143036,1.8330002-6.7074585,1.8330002c-5.2549591,0-9.7845154-2.5245209-9.7845154-7.7447205
			C157.7021179,62.7367592,157.8063507,61.8376312,158.0826263,60.4207191z"/>
		<path class="st0" d="M183.045578,66.2282028h2.766037l3.0770416-15.7301216h-2.766037l0.8643799-4.4948082h11.5819244
			c1.5906525,0,2.8007812,0.138134,3.976181,0.5533791c2.3855286,0.933033,4.1481934,3.3880577,4.1481934,6.6727142
			c0,3.9066811-2.3855286,7.4676132-5.8769684,8.8506317c-1.2796326,0.4838867-2.766037,0.6567688-4.2871857,0.6567688h-3.8371887
			l-0.6915131,3.4914436h2.799942l-0.8643951,4.4948044h-11.7547913L183.045578,66.2282028z M196.4605103,57.8962059
			c0.7601471,0,1.4864044-0.1728783,2.0397797-0.4838905c1.2092896-0.6915131,1.9702911-2.1779175,1.9702911-3.8371964
			c0-0.9686203-0.2762604-1.7982635-0.8643951-2.2473984c-0.4152374-0.3110123-1.0025177-0.4838905-1.7287598-0.4838905h-2.8694305
			l-1.3830109,7.0523643h2.8355255V57.8962059z"/>
	</g>
	<g>
		<path class="st0" d="M196.6879272,34.5954742c11.8887787,0.2309151,21.4831696,9.8253059,21.7141266,21.713974
			l23.8855438-45.599556L196.6879272,34.5954742z"/>
		
			<linearGradient id="SVGID_1_" gradientUnits="userSpaceOnUse" x1="200.3406982" y1="32.9967232" x2="236.3043671" y2="68.9604034" gradientTransform="matrix(1 0 0 -1 0 85.6535416)">
			<stop  offset="0" style="stop-color:#DCDCDC"/>
			<stop  offset="1" style="stop-color:#BEBEBE"/>
		</linearGradient>
		<path class="st1" d="M182.2746582,34.5907097h9.3591003c0.8071747-4.0923767,2.7107086-7.7910957,5.3919067-10.777359
			l-6.5348053-6.5347652C186.1500702,21.9647789,183.1941833,27.9521599,182.2746582,34.5907097z M232.6111603,12.9999323
			c-5.2486725-3.7655115-11.6831818-5.9829283-18.6358337-5.9829283c-8.3951569,0-16.0350189,3.2327662-21.7436218,8.5207281
			l6.5349274,6.5349722c4.0320892-3.6205845,9.3630066-5.8234653,15.2086945-5.8234653
			c3.1764679,0,6.2008514,0.6506481,8.9476166,1.8254509L232.6111603,12.9999323z M218.4067535,61.3638611v9.359024
			c6.6384888-0.9195175,12.6259766-3.875351,17.3121796-8.2162361l-6.5348053-6.5348701
			C226.1978455,58.6530342,222.4992371,60.5567245,218.4067535,61.3638611z M239.99823,20.3870945l-5.0750122,9.6885395
			c1.1745148,2.7465591,1.8250122,5.7705688,1.8250122,8.9466133c0,5.8456306-2.2027893,11.1765289-5.8233032,15.2086906
			l6.5348511,6.5348701c5.2880402-5.7085457,8.5207367-13.3483543,8.5207367-21.7435493
			C245.9805145,32.0698738,243.763443,25.6357212,239.99823,20.3870945z"/>
	</g>
</g>
</svg>
