<?xml version="1.0" encoding="UTF-8"?>
<!-- Generator: Adobe Illustrator 22.1.0, SVG Export Plug-In . SVG Version: 6.00 Build 0)  -->
<svg version="1.1" id="Layer_1" xmlns="http://www.w3.org/2000/svg" xmlns:xlink="http://www.w3.org/1999/xlink" x="0px" y="0px" viewBox="0 0 319 466.5" style="enable-background:new 0 0 319 466.5;" xml:space="preserve">
<title>Chestahedron-Slim</title>
<path d="M257.3,151.9L160.1,16.6L64.6,151.8L14,367.6l146.1,86.3L307,367.7L257.3,151.9z M300.8,356.4l-49-84.4l-20.9-36l24.3-77.2  L300.8,356.4z M253.3,152.3l-25.1,79l-66.3-114.6l-0.1-91.5L253.3,152.3z M226.7,235.9l-40.6,127.7h-51.6L94.3,234.9L160,120.7  L226.7,235.9z M158.2,25.3l0.1,91.3L92.8,230.2l-24.4-77.9L158.2,25.3z M66.2,158.8l24,76.1L21,355L66.2,158.8z M92.2,240.3  l38.5,123.3l-110-0.1L92.2,240.3z M22.3,367.1h109.6l25.1,80.4L22.3,367.1z M160,445.4l-23.4-78.3h48.3L160,445.4z M163.2,447.5  l25.5-80.4H299L163.2,447.5z M189.9,363.6l39.2-123.4l19.7,33.8l51.8,89.6H189.9z"/>
</svg>