<svg xmlns="http://www.w3.org/2000/svg" width="300" height="137.404" viewBox="0 0 300 137.404"><path d="M32.119 80.094c-9.923 0-12.147 2.167-12.147 5.019 0 2.794 2.224 5.018 12.147 5.018 9.866 0 12.432-2.224 12.432-5.018 0-2.852-2.566-5.019-12.432-5.019M0 136.5h65.157V2.704H0V136.5zm43.297-87.771v-7.3h7.071v25.492h-4.79c-8.726-9.239-14.941-15.74-20.074-15.74-3.536 0-5.475 1.996-5.475 5.133 0 2.623 1.768 4.619 3.707 6.444l-4.505 4.562c-3.821-3.593-5.76-6.958-5.76-12.147 0-7.129 4.562-11.976 11.52-11.976 6.102 0 12.604 5.703 18.762 11.577-.228-1.824-.456-4.334-.456-6.045m7.071 78.754h-4.79c-8.726-9.238-14.941-15.74-20.074-15.74-3.536 0-5.475 1.996-5.475 5.133 0 2.623 1.768 4.619 3.707 6.444l-4.505 4.562c-3.821-3.593-5.76-6.958-5.76-12.147 0-7.128 4.562-11.976 11.52-11.976 6.102 0 12.604 5.703 18.762 11.577-.228-1.825-.456-4.334-.456-6.045v-7.299h7.071v25.491zM32.119 98.058c-12.318 0-18.648-5.189-18.648-12.945s6.33-12.945 18.648-12.945 18.934 5.189 18.934 12.945-6.615 12.945-18.934 12.945m0-60.277c-12.318 0-18.648-5.189-18.648-12.945s6.33-12.945 18.648-12.945 18.934 5.189 18.934 12.945-6.615 12.945-18.934 12.945m0-17.964c-9.923 0-12.147 2.167-12.147 5.019 0 2.794 2.224 5.019 12.147 5.019 9.866 0 12.432-2.224 12.432-5.019 0-2.852-2.566-5.019-12.432-5.019M74.354 2.945h6.74l11.554 20.843 3.795 7.873h.227a411.795 411.795 0 00-.538-6.202 68.603 68.603 0 01-.312-6.429V2.945h6.287v37.042h-6.74L83.812 19.144l-3.795-7.873h-.227c.15 1.964.33 4.021.538 6.174a66.25 66.25 0 01.312 6.343v16.199h-6.287V2.945zM118.984 40.667c-2.983 0-5.154-.953-6.514-2.86-1.359-1.906-2.039-4.635-2.039-8.185V12.177h6.513v16.595c0 2.303.34 3.927 1.02 4.871.68.944 1.774 1.416 3.285 1.416 1.208 0 2.274-.302 3.2-.906.925-.604 1.916-1.586 2.974-2.945v-19.03h6.514v27.81h-5.324l-.51-4.078h-.17c-1.209 1.436-2.521 2.587-3.937 3.455-1.415.866-3.086 1.302-5.012 1.302zM116.549 7.25c-.982 0-1.804-.33-2.464-.991-.661-.661-.991-1.481-.991-2.464 0-.981.33-1.803.991-2.464.66-.66 1.481-.991 2.464-.991 1.02 0 1.85.331 2.492.991.642.661.963 1.482.963 2.464s-.321 1.803-.963 2.464c-.643.66-1.473.991-2.492.991zm11.667 0c-1.02 0-1.851-.33-2.492-.991-.643-.661-.962-1.481-.962-2.464 0-.981.32-1.803.962-2.464.642-.66 1.473-.991 2.492-.991.981 0 1.803.331 2.464.991.66.661.991 1.482.991 2.464s-.331 1.803-.991 2.464c-.661.66-1.482.991-2.464.991zM142.149 12.177h5.38l.453 4.928h.227c.981-1.813 2.171-3.2 3.568-4.163 1.396-.963 2.832-1.444 4.305-1.444 1.321 0 2.378.189 3.171.566l-1.132 5.664a12.079 12.079 0 00-1.359-.34 8.782 8.782 0 00-1.529-.114c-1.096 0-2.247.425-3.455 1.274-1.209.85-2.247 2.332-3.115 4.446v16.992h-6.513V12.177zM163.218 12.177h5.381l.453 3.738h.227a22.102 22.102 0 014.049-3.115c1.453-.868 3.144-1.303 5.069-1.303 2.982 0 5.154.954 6.514 2.86 1.359 1.907 2.039 4.635 2.039 8.184v17.445h-6.513V23.392c0-2.303-.34-3.927-1.02-4.871-.68-.943-1.794-1.416-3.342-1.416-1.208 0-2.275.292-3.2.878-.926.585-1.974 1.444-3.144 2.577v19.427h-6.514v-27.81zM208.358 40.667c-1.284 0-2.577-.312-3.88-.935-1.302-.623-2.54-1.52-3.709-2.69h-.17l-.566 2.945h-5.154V0h6.514v10.308l-.17 4.645a16.194 16.194 0 013.823-2.492c1.378-.642 2.784-.963 4.219-.963 1.736 0 3.285.331 4.645.991a9.623 9.623 0 013.455 2.832c.943 1.227 1.661 2.709 2.152 4.446.49 1.737.736 3.682.736 5.834 0 2.379-.331 4.502-.991 6.372s-1.539 3.446-2.633 4.729c-1.096 1.284-2.36 2.266-3.795 2.945a10.344 10.344 0 01-4.476 1.02zm-1.359-5.381c1.85 0 3.398-.802 4.645-2.407 1.246-1.604 1.869-3.993 1.869-7.165 0-2.794-.473-4.965-1.416-6.514-.944-1.547-2.474-2.322-4.588-2.322-1.964 0-4.002 1.039-6.117 3.115v12.97c.981.869 1.954 1.473 2.917 1.813.962.34 1.859.51 2.69.51zM238.603 40.667c-1.926 0-3.72-.331-5.38-.991-1.662-.661-3.115-1.614-4.361-2.86s-2.219-2.766-2.917-4.56c-.699-1.793-1.048-3.842-1.048-6.145 0-2.266.358-4.305 1.076-6.117.717-1.812 1.671-3.341 2.86-4.587s2.558-2.209 4.106-2.889a11.712 11.712 0 014.757-1.02c1.888 0 3.549.321 4.984.963 1.435.643 2.634 1.549 3.596 2.719.963 1.17 1.689 2.568 2.181 4.191.49 1.624.736 3.398.736 5.324 0 .643-.028 1.246-.085 1.813s-.123 1.02-.198 1.359h-17.67c.302 2.492 1.18 4.409 2.634 5.749 1.453 1.341 3.313 2.011 5.579 2.011 1.208 0 2.331-.179 3.37-.538a14.877 14.877 0 003.086-1.501l2.209 4.078c-1.322.869-2.794 1.586-4.417 2.152a15.411 15.411 0 01-5.098.849zm4.927-17.219c0-2.152-.463-3.842-1.388-5.069-.926-1.227-2.351-1.841-4.276-1.841-1.662 0-3.115.585-4.361 1.755-1.246 1.171-2.021 2.889-2.322 5.154h12.347zM255.086 12.177h5.38l.453 4.928h.227c.981-1.813 2.171-3.2 3.568-4.163 1.396-.963 2.832-1.444 4.305-1.444 1.321 0 2.378.189 3.171.566l-1.132 5.664a12.079 12.079 0 00-1.359-.34 8.782 8.782 0 00-1.529-.114c-1.096 0-2.247.425-3.455 1.274-1.209.85-2.247 2.332-3.115 4.446v16.992h-6.513V12.177zM285.161 52.277c-1.662 0-3.2-.151-4.616-.454s-2.634-.755-3.653-1.359c-1.02-.604-1.822-1.359-2.407-2.266s-.877-1.964-.877-3.172c0-1.171.339-2.257 1.019-3.257.68-1.001 1.661-1.897 2.945-2.69v-.227a5.622 5.622 0 01-1.784-1.813c-.473-.755-.708-1.699-.708-2.832 0-1.095.312-2.086.935-2.974.623-.887 1.331-1.614 2.124-2.18v-.227c-.944-.716-1.784-1.708-2.521-2.973-.736-1.265-1.104-2.728-1.104-4.39 0-1.586.302-3.002.906-4.248.604-1.246 1.406-2.293 2.407-3.143 1-.85 2.161-1.491 3.483-1.926a13.347 13.347 0 014.191-.651c.755 0 1.482.066 2.181.198.698.133 1.331.293 1.897.481h9.968v4.814h-5.097c.453.529.83 1.199 1.133 2.01.302.813.453 1.709.453 2.69 0 1.549-.274 2.908-.821 4.078a8.494 8.494 0 01-2.237 2.945c-.944.793-2.059 1.397-3.342 1.812-1.284.416-2.662.623-4.135.623a10.77 10.77 0 01-1.869-.17 9.279 9.279 0 01-1.926-.566 5.903 5.903 0 00-.991 1.133c-.246.378-.368.888-.368 1.529 0 .793.33 1.416.991 1.869.66.453 1.841.68 3.54.68h4.927c3.36 0 5.899.538 7.618 1.614 1.718 1.076 2.577 2.822 2.577 5.239 0 1.359-.35 2.643-1.048 3.852-.699 1.208-1.69 2.246-2.974 3.115-1.284.868-2.841 1.558-4.672 2.067-1.832.514-3.88.769-6.145.769zm1.02-4.248c2.265 0 4.086-.444 5.465-1.331 1.378-.888 2.067-1.936 2.067-3.144 0-1.095-.425-1.832-1.274-2.209-.85-.378-2.067-.566-3.653-.566h-3.794c-1.511 0-2.775-.133-3.795-.396-1.436 1.094-2.152 2.322-2.152 3.681 0 1.246.632 2.218 1.897 2.917 1.264.699 3.01 1.048 5.239 1.048zm-.681-20.956c1.321 0 2.454-.481 3.398-1.444.943-.963 1.416-2.351 1.416-4.163 0-1.736-.463-3.086-1.388-4.05-.926-.962-2.067-1.444-3.427-1.444-1.359 0-2.511.473-3.455 1.416-.944.944-1.416 2.303-1.416 4.078 0 1.813.472 3.2 1.416 4.163.945.963 2.097 1.444 3.456 1.444zM74.354 51.541h10.875c2.794 0 5.352.339 7.674 1.019s4.313 1.756 5.976 3.229c1.661 1.473 2.954 3.361 3.879 5.664.925 2.303 1.388 5.079 1.388 8.326 0 3.248-.453 6.042-1.359 8.382-.906 2.342-2.181 4.268-3.823 5.777-1.643 1.511-3.588 2.625-5.834 3.341-2.247.718-4.692 1.076-7.334 1.076H74.354V51.541zM84.662 80.54c1.321 0 2.567-.16 3.738-.481 1.17-.32 2.18-.878 3.03-1.671s1.52-1.888 2.011-3.285c.49-1.396.736-3.171.736-5.324s-.246-3.908-.736-5.268c-.491-1.359-1.161-2.416-2.011-3.171-.85-.755-1.86-1.274-3.03-1.558a15.872 15.872 0 00-3.738-.425h-.566V80.54h.566zM109.583 51.541h9.742v36.814h-9.742V51.541zM143.339 89.035c-2.568 0-4.984-.388-7.25-1.161-2.265-.774-4.239-1.945-5.918-3.512-1.681-1.566-3.002-3.53-3.965-5.89-.962-2.359-1.444-5.106-1.444-8.241 0-3.096.49-5.843 1.472-8.241.981-2.397 2.313-4.418 3.993-6.061a17.275 17.275 0 015.862-3.767 19.171 19.171 0 017.023-1.302c2.719 0 5.069.481 7.051 1.444 1.982.963 3.634 2.105 4.956 3.427l-5.098 6.23a13.999 13.999 0 00-2.86-1.954c-1.001-.51-2.237-.765-3.71-.765-1.246 0-2.398.246-3.455.736-1.058.491-1.982 1.189-2.775 2.096s-1.407 2.02-1.84 3.341c-.435 1.322-.651 2.813-.651 4.475 0 3.474.773 6.136 2.322 7.986 1.548 1.851 3.983 2.775 7.307 2.775.528 0 1.048-.057 1.558-.17s.935-.283 1.274-.51v-5.097h-5.438v-7.93h14.046v17.558c-1.322 1.246-3.078 2.313-5.268 3.2-2.19.889-4.587 1.333-7.192 1.333zM162.936 51.541h9.742v36.814h-9.742V51.541zM186.157 59.697h-9.742v-8.156h29.226v8.156h-9.742v28.659h-9.742V59.697zM225.691 80.54h-10.308l-1.813 7.816h-9.968l11.214-36.814h11.781l11.214 36.814h-10.308l-1.812-7.816zm-1.756-7.533l-.623-2.549c-.453-1.774-.906-3.7-1.359-5.777a239.54 239.54 0 00-1.359-5.89h-.227c-.416 1.889-.84 3.861-1.274 5.918a138.418 138.418 0 01-1.331 5.749l-.623 2.549h6.796zM241.323 51.541h9.742V80.2h13.933v8.156h-23.675V51.541z"/><g><path d="M74.354 99.91h24.015v8.156H84.095v7.023h12.234v8.156H84.095v13.48h-9.742V99.91z"/></g><g><path d="M103.579 99.91h23.788v8.156H113.32v5.777h12.007v8.156H113.32v6.57h14.613v8.156h-24.354V99.91z"/></g><g><path d="M145.604 137.404c-2.342 0-4.749-.425-7.222-1.274-2.473-.85-4.71-2.181-6.711-3.993l5.55-6.684a18.62 18.62 0 004.276 2.577c1.529.661 2.974.991 4.333.991 1.473 0 2.539-.227 3.2-.68.66-.453.991-1.095.991-1.926 0-.453-.113-.83-.34-1.133-.227-.302-.558-.585-.991-.85-.434-.264-.954-.519-1.558-.764s-1.302-.519-2.095-.822l-4.588-1.925c-.982-.377-1.926-.878-2.832-1.501s-1.699-1.359-2.378-2.209-1.218-1.821-1.614-2.917c-.396-1.095-.595-2.303-.595-3.625 0-1.586.34-3.067 1.02-4.446a11.392 11.392 0 012.832-3.625c1.208-1.038 2.652-1.859 4.333-2.464 1.68-.604 3.521-.906 5.522-.906 2.114 0 4.256.396 6.428 1.189 2.171.793 4.106 2.039 5.805 3.738l-4.871 6.117c-1.246-.869-2.445-1.53-3.597-1.982-1.152-.453-2.407-.68-3.766-.68-1.209 0-2.152.208-2.832.623-.68.416-1.02 1.039-1.02 1.869 0 .869.481 1.539 1.444 2.011.963.473 2.294 1.029 3.993 1.671l4.475 1.756c2.303.906 4.078 2.172 5.324 3.795 1.246 1.624 1.869 3.719 1.869 6.287 0 1.549-.322 3.04-.963 4.475-.642 1.435-1.577 2.69-2.803 3.767-1.228 1.076-2.729 1.935-4.503 2.577-1.774.642-3.813.963-6.116.963z"/></g><g><path d="M170.355 108.066h-9.742V99.91h29.226v8.156h-9.742v28.659h-9.742v-28.659z"/></g><g><path d="M193.577 99.91h9.742v36.815h-9.742V99.91zM206.83 99.91h10.308l3.851 16.085a89.103 89.103 0 011.36 5.806c.376 1.907.83 3.861 1.359 5.862h.226c.528-2.001.991-3.955 1.388-5.862s.84-3.842 1.331-5.806l3.738-16.085h9.968l-10.875 36.815h-11.781L206.83 99.91zM260.239 128.909h-10.308l-1.813 7.816h-9.968l11.214-36.815h11.781l11.214 36.815h-10.308l-1.812-7.816zm-1.756-7.534l-.623-2.548c-.453-1.774-.906-3.7-1.359-5.777a239.54 239.54 0 00-1.359-5.89h-.227a679.47 679.47 0 00-1.274 5.918 141.713 141.713 0 01-1.331 5.749l-.623 2.548h6.796zM275.872 99.91h9.742v28.659h13.933v8.156h-23.675V99.91z"/></g></svg>