<?xml version="1.0" encoding="UTF-8" standalone="no"?>
<svg
   xmlns:dc="http://purl.org/dc/elements/1.1/"
   xmlns:cc="http://creativecommons.org/ns#"
   xmlns:rdf="http://www.w3.org/1999/02/22-rdf-syntax-ns#"
   xmlns:svg="http://www.w3.org/2000/svg"
   xmlns="http://www.w3.org/2000/svg"
   xmlns:xlink="http://www.w3.org/1999/xlink"
   xmlns:sodipodi="http://sodipodi.sourceforge.net/DTD/sodipodi-0.dtd"
   xmlns:inkscape="http://www.inkscape.org/namespaces/inkscape"
   width="38"
   height="38"
   viewBox="0 0 38 38"
   version="1.1"
   id="svg2"
   inkscape:version="0.91 r13725"
   sodipodi:docname="peermit.svg">
  <metadata
     id="metadata49">
    <rdf:RDF>
      <cc:Work
         rdf:about="">
        <dc:format>image/svg+xml</dc:format>
        <dc:type
           rdf:resource="http://purl.org/dc/dcmitype/StillImage" />
        <dc:title>Group</dc:title>
      </cc:Work>
    </rdf:RDF>
  </metadata>
  <sodipodi:namedview
     pagecolor="#ffffff"
     bordercolor="#666666"
     borderopacity="1"
     objecttolerance="10"
     gridtolerance="10"
     guidetolerance="10"
     inkscape:pageopacity="0"
     inkscape:pageshadow="2"
     inkscape:window-width="1280"
     inkscape:window-height="997"
     id="namedview47"
     showgrid="false"
     inkscape:zoom="17.351313"
     inkscape:cx="26.93326"
     inkscape:cy="17.344999"
     inkscape:window-x="1680"
     inkscape:window-y="0"
     inkscape:window-maximized="1"
     inkscape:current-layer="svg2" />
  <!-- Generator: Sketch 3.7.2 (28276) - http://www.bohemiancoding.com/sketch -->
  <title
     id="title4">Group</title>
  <desc
     id="desc6">Created with Sketch.</desc>
  <defs
     id="defs8">
    <filter
       x="-0.5"
       y="-0.5"
       width="2"
       height="2"
       filterUnits="objectBoundingBox"
       id="filter-1">
      <feOffset
         dx="0"
         dy="1"
         in="SourceAlpha"
         result="shadowOffsetOuter1"
         id="feOffset11" />
      <feGaussianBlur
         stdDeviation="1"
         in="shadowOffsetOuter1"
         result="shadowBlurOuter1"
         id="feGaussianBlur13" />
      <feColorMatrix
         values="0 0 0 0 0   0 0 0 0 0   0 0 0 0 0  0 0 0 0.123075181 0"
         type="matrix"
         in="shadowBlurOuter1"
         result="shadowMatrixOuter1"
         id="feColorMatrix15" />
      <feMerge
         id="feMerge17">
        <feMergeNode
           in="shadowMatrixOuter1"
           id="feMergeNode19" />
        <feMergeNode
           in="SourceGraphic"
           id="feMergeNode21" />
      </feMerge>
    </filter>
    <path
       d="m 14.5,22.719298 c -2.52315,0 -4.5588235,-2.056288 -4.5588235,-4.604989 0,-2.549249 2.0356735,-4.605537 4.5588235,-4.605537 2.52315,0 4.558823,2.056288 4.558823,4.605537 0,2.548701 -2.035673,4.604989 -4.558823,4.604989 l 0,0 z m 0,-7.935627 c -1.832106,0 -3.337419,1.520556 -3.337419,3.371216 0,1.850659 1.505313,3.371216 3.337419,3.371216 1.832106,0 3.337419,-1.520557 3.337419,-3.371216 0,-1.85066 -1.505313,-3.371216 -3.337419,-3.371216 l 0,0 z"
       id="path-2"
       inkscape:connector-curvature="0" />
    <filter
       x="-0.5"
       y="-0.5"
       width="2"
       height="2"
       filterUnits="objectBoundingBox"
       id="filter-3">
      <feGaussianBlur
         stdDeviation="1"
         in="SourceAlpha"
         result="shadowBlurInner1"
         id="feGaussianBlur25" />
      <feOffset
         dx="0"
         dy="1"
         in="shadowBlurInner1"
         result="shadowOffsetInner1"
         id="feOffset27" />
      <feComposite
         in="shadowOffsetInner1"
         in2="SourceAlpha"
         operator="arithmetic"
         k2="-1"
         k3="1"
         result="shadowInnerInner1"
         id="feComposite29"
         k1="0"
         k4="0" />
      <feColorMatrix
         values="0 0 0 0 0   0 0 0 0 0   0 0 0 0 0  0 0 0 0.173629982 0"
         type="matrix"
         in="shadowInnerInner1"
         id="feColorMatrix31" />
    </filter>
  </defs>
  <g
     id="g4194"
     transform="translate(-1.4984457,4.0767898e-7)">
    <path
       sodipodi:nodetypes="cccccccc"
       transform="matrix(0.61566148,-0.78801075,-0.78801075,-0.61566148,23.356755,38.389266)"
       style="fill:#1a1b41;fill-rule:evenodd;stroke:none;stroke-width:1;filter:url(#filter-1)"
       inkscape:connector-curvature="0"
       id="Fill-7"
       d="m 11.839163,15.160302 c -0.227941,0 -0.410901,-0.09149 -0.54645,-0.275701 L 5.3302057,7.2872444 C 5.1022645,6.9661041 5.1922253,6.5510164 5.5131665,6.3207532 5.8310684,6.09049 6.2419704,6.1813672 6.4699116,6.5055778 L 12.432418,14.10232 c 0.227942,0.321754 0.137981,0.736228 -0.182353,0.966491 -0.13798,0.04605 -0.27596,0.09149 -0.410902,0.09149 z" />
    <path
       transform="matrix(0.61566148,-0.78801075,-0.78801075,-0.61566148,22.907116,38.389266)"
       style="fill:#1a1b41;fill-rule:evenodd;stroke:none;stroke-width:1;filter:url(#filter-1)"
       inkscape:connector-curvature="0"
       id="Fill-2"
       d="m 3.8317451,7.7835088 c -2.096451,0 -3.78443137,-1.7033334 -3.78443137,-3.8235965 0,-2.117807 1.68554897,-3.82298247 3.78443137,-3.82298247 2.096451,0 3.7850392,1.70271927 3.7850392,3.82298247 0,2.117807 -1.6885882,3.8235965 -3.7850392,3.8235965 l 0,0 z m 0,-6.2171053 c -1.3226667,0 -2.4167843,1.1058772 -2.4167843,2.4414035 0,1.3361404 1.0941176,2.4420176 2.4167843,2.4420176 1.3226667,0 2.4173922,-1.1058772 2.4173922,-2.4420176 0,-1.3336842 -1.0947255,-2.4414035 -2.4173922,-2.4414035 l 0,0 z" />
    <path
       transform="matrix(0.61566148,-0.78801075,-0.78801075,-0.61566148,22.907116,38.389266)"
       style="fill:#1a1b41;fill-rule:evenodd;stroke:none;stroke-width:1;filter:url(#filter-1)"
       inkscape:connector-curvature="0"
       id="Fill-5"
       d="m 25.807098,24.91386 c -2.097059,0 -3.785039,-1.70272 -3.785039,-3.822983 0,-2.118421 1.685549,-3.823596 3.785039,-3.823596 2.096451,0 3.784431,1.703333 3.784431,3.823596 0,2.117807 -1.68798,3.822983 -3.784431,3.822983 l 0,0 z m 0,-6.217106 c -1.322667,0 -2.417392,1.105878 -2.417392,2.442018 0,1.33614 1.094725,2.441403 2.417392,2.441403 1.322059,0 2.416784,-1.105263 2.416784,-2.441403 0,-1.333684 -1.097157,-2.442018 -2.416784,-2.442018 l 0,0 z" />
    <path
       transform="matrix(0.61566148,-0.78801075,-0.78801075,-0.61566148,22.907116,38.389266)"
       style="fill:#1a1b41;fill-rule:evenodd;stroke:none;stroke-width:1;filter:url(#filter-1)"
       inkscape:connector-curvature="0"
       id="Fill-11"
       d="m 22.406834,20.915977 c -0.08996,0 -0.18296,0 -0.272921,-0.04544 L 18.647922,19.80263 c -0.365314,-0.139386 -0.500863,-0.551404 -0.365314,-0.921053 0.137372,-0.369649 0.545843,-0.505965 0.911764,-0.369649 l 3.485384,1.067907 c 0.365921,0.139386 0.500863,0.552017 0.365921,0.921053 -0.13798,0.230263 -0.365921,0.415087 -0.638843,0.415089 z"
       sodipodi:nodetypes="cccccccc" />
    <use
       transform="matrix(0.61566148,-0.78801075,-0.78801075,-0.61566148,23.356755,38.389266)"
       xlink:href="#path-2"
       id="use43"
       style="fill:#a4f004;fill-rule:evenodd;stroke:none;stroke-width:1;filter:url(#filter-1)"
       x="0"
       y="0"
       width="100%"
       height="100%" />
    <use
       transform="matrix(0.61566148,-0.78801075,-0.78801075,-0.61566148,23.356755,38.389266)"
       xlink:href="#path-2"
       id="use45"
       style="fill:#000000;fill-opacity:1;fill-rule:evenodd;stroke:none;stroke-width:1;filter:url(#filter-3)"
       x="0"
       y="0"
       width="100%"
       height="100%" />
  </g>
</svg>
